<svg xmlns="http://www.w3.org/2000/svg" width="1024" height="1024" viewBox="0 0 1024 1024">
<g>
<path d="M 0.00 0.00 L 1024.00 0.00 L 1024.00 1024.00 L 0.00 1024.00 ZM 642.29 647.75 C664.40,691.89 683.01,728.00 683.64,728.00 C684.27,728.00 692.37,724.58 701.64,720.39 C710.91,716.21 729.53,707.93 743.00,701.99 C771.96,689.22 799.38,676.93 799.81,676.51 C800.08,676.25 777.29,630.06 776.43,629.12 C775.94,628.60 771.34,630.50 738.72,644.73 C722.90,651.63 709.84,657.10 709.71,656.89 C709.58,656.68 689.91,617.28 665.99,569.35 L 622.50 482.20 L 534.80 482.10 L 447.09 482.00 L 446.56 478.75 C445.62,473.03 443.00,448.20 443.00,445.05 L 443.00 442.00 L 581.30 442.00 L 580.63 431.75 C580.26,426.11 579.67,414.41 579.32,405.75 L 578.69 390.00 L 438.12 390.00 L 437.57 385.75 C436.45,377.22 430.59,322.97 429.43,310.39 L 428.77 303.28 L 435.92 302.58 C467.89,299.43 491.00,274.78 491.00,243.84 C491.00,233.18 489.53,226.93 484.70,217.00 C479.30,205.90 467.95,194.17 457.30,188.67 C434.92,177.10 409.91,178.80 391.30,193.16 C377.15,204.07 367.00,225.63 367.00,244.79 C367.00,250.08 373.52,310.27 375.96,327.50 C376.51,331.35 377.86,343.05 378.97,353.50 C380.07,363.95 381.22,374.52 381.52,377.00 C382.49,385.08 385.98,416.10 387.99,434.50 C389.06,444.40 391.10,462.17 392.51,474.00 C393.92,485.83 396.09,504.27 397.32,515.00 L 399.57 534.50 L 585.50 535.50 L 593.79 551.50 C598.35,560.30 620.18,603.61 642.29,647.75 ZM 413.50 806.39 C415.15,806.63 427.30,806.68 440.50,806.51 C461.91,806.23 465.85,805.91 477.00,803.55 C494.32,799.88 511.84,793.86 525.73,786.80 C568.30,765.18 602.46,730.99 624.44,688.03 C628.29,680.50 629.84,676.49 629.20,675.69 C628.68,675.04 620.15,658.53 610.24,639.00 L 592.23 603.50 L 591.05 611.94 C583.20,668.18 550.47,715.98 503.10,740.38 C484.27,750.08 464.37,754.91 439.95,755.71 C408.00,756.75 382.37,749.73 356.34,732.82 C329.79,715.56 312.26,695.78 298.43,667.50 C275.20,619.97 277.16,566.97 303.93,518.74 C315.52,497.85 337.43,473.11 358.20,457.43 C367.75,450.22 368.48,449.44 368.18,446.58 C368.00,444.89 366.54,433.83 364.93,422.00 C363.32,410.17 362.00,399.93 362.00,399.22 C362.00,397.64 359.48,398.87 344.50,407.80 C333.64,414.28 331.82,415.48 321.00,423.41 C296.99,441.00 273.24,467.10 258.11,492.55 C238.66,525.26 229.00,561.10 229.00,600.50 C229.00,655.88 247.21,701.45 285.50,741.88 C299.48,756.64 321.78,773.35 342.00,784.21 C362.26,795.09 386.20,802.51 413.50,806.39 Z" fill="rgb(23,44,61)"/>
<path d="M 413.50 806.39 C386.20,802.51 362.26,795.09 342.00,784.21 C321.78,773.35 299.48,756.64 285.50,741.88 C247.21,701.45 229.00,655.88 229.00,600.50 C229.00,561.10 238.66,525.26 258.11,492.55 C273.24,467.10 296.99,441.00 321.00,423.41 C331.82,415.48 333.64,414.28 344.50,407.80 C359.48,398.87 362.00,397.64 362.00,399.22 C362.00,399.93 363.32,410.17 364.93,422.00 C366.54,433.83 368.00,444.89 368.18,446.58 C368.48,449.44 367.75,450.22 358.20,457.43 C337.43,473.11 315.52,497.85 303.93,518.74 C277.16,566.97 275.20,619.97 298.43,667.50 C312.26,695.78 329.79,715.56 356.34,732.82 C382.37,749.73 408.00,756.75 439.95,755.71 C464.37,754.91 484.27,750.08 503.10,740.38 C550.47,715.98 583.20,668.18 591.05,611.94 L 592.23 603.50 L 610.24 639.00 C620.15,658.53 628.68,675.04 629.20,675.69 C629.84,676.49 628.29,680.50 624.44,688.03 C602.46,730.99 568.30,765.18 525.73,786.80 C511.84,793.86 494.32,799.88 477.00,803.55 C465.85,805.91 461.91,806.23 440.50,806.51 C427.30,806.68 415.15,806.63 413.50,806.39 ZM 642.29 647.75 C620.18,603.61 598.35,560.30 593.79,551.50 L 585.50 535.50 L 492.53 535.00 L 399.57 534.50 L 397.32 515.00 C396.09,504.27 393.92,485.83 392.51,474.00 C391.10,462.17 389.06,444.40 387.99,434.50 C385.98,416.10 382.49,385.08 381.52,377.00 C381.22,374.52 380.07,363.95 378.97,353.50 C377.86,343.05 376.51,331.35 375.96,327.50 C373.52,310.27 367.00,250.08 367.00,244.79 C367.00,225.63 377.15,204.07 391.30,193.16 C409.91,178.80 434.92,177.10 457.30,188.67 C467.95,194.17 479.30,205.90 484.70,217.00 C489.53,226.93 491.00,233.18 491.00,243.84 C491.00,274.78 467.89,299.43 435.92,302.58 L 428.77 303.28 L 429.43 310.39 C430.59,322.97 436.45,377.22 437.57,385.75 L 438.12 390.00 L 508.41 390.00 L 578.69 390.00 L 579.32 405.75 C579.67,414.41 580.26,426.11 580.63,431.75 L 581.30 442.00 L 512.15 442.00 L 443.00 442.00 L 443.00 445.05 C443.00,448.20 445.62,473.03 446.56,478.75 L 447.09 482.00 L 534.80 482.10 L 622.50 482.20 L 665.99 569.35 C689.91,617.28 709.58,656.68 709.71,656.89 C709.84,657.10 722.90,651.63 738.72,644.73 C771.34,630.50 775.94,628.60 776.43,629.12 C777.29,630.06 800.08,676.25 799.81,676.51 C799.38,676.93 771.96,689.22 743.00,701.99 C729.53,707.93 710.91,716.21 701.64,720.39 C692.37,724.58 684.27,728.00 683.64,728.00 C683.01,728.00 664.40,691.89 642.29,647.75 Z" fill="rgb(253,253,253)"/>
</g>
</svg>