<svg xmlns="http://www.w3.org/2000/svg" width="1024" height="1024" viewBox="0 0 1024 1024">
<g>
<path d="M 783.07 710.35 C750.65,726.11 723.52,739.00 722.77,739.00 C722.01,739.00 718.04,732.09 713.72,723.25 C709.49,714.59 685.66,666.22 660.76,615.77 L 615.50 524.04 L 514.75 524.02 C447.04,524.01 414.00,523.67 414.00,522.98 C414.00,521.10 396.66,364.86 392.47,329.00 C389.72,305.44 383.00,255.15 380.45,239.04 C375.27,206.38 376.12,193.53 384.59,176.19 C392.48,160.07 407.29,146.87 424.46,140.66 C431.33,138.17 434.40,137.68 445.50,137.27 C460.20,136.73 467.63,138.00 478.37,142.87 C496.77,151.21 512.50,167.80 519.40,186.13 C526.30,204.50 524.54,225.48 514.58,243.51 C508.79,253.98 495.71,266.45 484.92,271.78 C476.67,275.85 462.46,279.97 456.50,280.01 C454.85,280.02 452.48,280.30 451.23,280.64 C449.18,281.19 449.02,281.68 449.52,285.87 C450.09,290.65 453.93,326.53 456.09,347.25 L 457.31 359.00 L 615.00 359.00 L 615.00 417.00 L 463.88 417.00 L 464.44 421.25 C464.75,423.59 465.67,432.48 466.50,441.00 C467.32,449.52 468.26,458.19 468.59,460.25 L 469.18 464.00 L 559.97 464.00 C631.41,464.00 650.96,464.27 651.73,465.25 C652.26,465.94 674.88,510.60 701.99,564.50 C729.09,618.40 751.36,662.61 751.47,662.75 C751.58,662.89 766.21,656.00 783.98,647.45 C801.75,638.89 816.82,632.10 817.48,632.35 C818.57,632.77 842.00,679.18 842.00,680.93 C842.00,681.35 815.48,694.59 783.07,710.35 ZM 491.00 841.10 C481.40,842.74 473.29,843.30 456.00,843.52 C443.62,843.68 432.15,843.63 430.50,843.40 C428.85,843.17 422.33,842.29 416.00,841.43 C380.04,836.56 342.62,820.80 311.33,797.36 C300.71,789.42 279.47,768.64 269.88,756.83 C247.73,729.54 231.98,697.80 223.89,664.13 C208.03,598.10 220.12,527.30 256.77,471.61 C280.95,434.87 318.24,401.37 356.45,382.07 C369.24,375.60 369.96,375.59 369.98,381.73 C369.99,383.50 371.35,395.62 373.00,408.66 C374.65,421.71 376.00,433.39 376.00,434.62 C376.00,436.37 374.11,438.01 367.48,442.01 C349.37,452.95 332.52,466.94 320.17,481.31 C309.85,493.30 298.29,510.42 292.94,521.62 C272.85,563.72 269.39,619.25 284.11,663.50 C290.22,681.86 302.61,704.35 314.81,719.24 C322.03,728.06 337.17,742.76 345.99,749.52 C369.14,767.26 399.35,779.43 430.30,783.46 C473.45,789.09 517.98,778.56 552.40,754.60 C570.63,741.91 590.06,722.20 601.78,704.50 C616.60,682.12 626.19,656.97 631.47,626.61 C632.04,623.32 632.35,622.93 633.48,624.11 C634.22,624.87 643.11,639.45 653.24,656.50 C663.37,673.55 672.27,688.47 673.01,689.65 C674.22,691.58 673.63,693.26 666.83,707.15 C632.25,777.77 565.80,828.39 491.00,841.10 Z" fill="rgb(27,51,63)"/>
<path d="M 0.00 512.00 L 0.00 0.00 L 512.00 0.00 L 1024.00 0.00 L 1024.00 512.00 L 1024.00 1024.00 L 512.00 1024.00 L 0.00 1024.00 L 0.00 512.00 ZM 491.00 841.10 C565.80,828.39 632.25,777.77 666.83,707.15 C673.63,693.26 674.22,691.58 673.01,689.65 C672.27,688.47 663.37,673.55 653.24,656.50 C643.11,639.45 634.22,624.87 633.48,624.11 C632.35,622.93 632.04,623.32 631.47,626.61 C626.19,656.97 616.60,682.12 601.78,704.50 C590.06,722.20 570.63,741.91 552.40,754.60 C517.98,778.56 473.45,789.09 430.30,783.46 C399.35,779.43 369.14,767.26 345.99,749.52 C337.17,742.76 322.03,728.06 314.81,719.24 C302.61,704.35 290.22,681.86 284.11,663.50 C269.39,619.25 272.85,563.72 292.94,521.62 C298.29,510.42 309.85,493.30 320.17,481.31 C332.52,466.94 349.37,452.95 367.48,442.01 C374.11,438.01 376.00,436.37 376.00,434.62 C376.00,433.39 374.65,421.71 373.00,408.66 C371.35,395.62 369.99,383.50 369.98,381.73 C369.96,375.59 369.24,375.60 356.45,382.07 C318.24,401.37 280.95,434.87 256.77,471.61 C220.12,527.30 208.03,598.10 223.89,664.13 C231.98,697.80 247.73,729.54 269.88,756.83 C279.47,768.64 300.71,789.42 311.33,797.36 C342.62,820.80 380.04,836.56 416.00,841.43 C422.33,842.29 428.85,843.17 430.50,843.40 C432.15,843.63 443.62,843.68 456.00,843.52 C473.29,843.30 481.40,842.74 491.00,841.10 ZM 783.07 710.35 C815.48,694.59 842.00,681.35 842.00,680.93 C842.00,679.18 818.57,632.77 817.48,632.35 C816.82,632.10 801.75,638.89 783.98,647.45 C766.21,656.00 751.58,662.89 751.47,662.75 C751.36,662.61 729.09,618.40 701.99,564.50 C674.88,510.60 652.26,465.94 651.73,465.25 C650.96,464.27 631.41,464.00 559.97,464.00 L 469.18 464.00 L 468.59 460.25 C468.26,458.19 467.32,449.52 466.50,441.00 C465.67,432.48 464.75,423.59 464.44,421.25 L 463.88 417.00 L 539.44 417.00 L 615.00 417.00 L 615.00 388.00 L 615.00 359.00 L 536.16 359.00 L 457.31 359.00 L 456.09 347.25 C453.93,326.53 450.09,290.65 449.52,285.87 C449.02,281.68 449.18,281.19 451.23,280.64 C452.48,280.30 454.85,280.02 456.50,280.01 C462.46,279.97 476.67,275.85 484.92,271.78 C495.71,266.45 508.79,253.98 514.58,243.51 C524.54,225.48 526.30,204.50 519.40,186.13 C512.50,167.80 496.77,151.21 478.37,142.87 C467.63,138.00 460.20,136.73 445.50,137.27 C434.40,137.68 431.33,138.17 424.46,140.66 C407.29,146.87 392.48,160.07 384.59,176.19 C376.12,193.53 375.27,206.38 380.45,239.04 C383.00,255.15 389.72,305.44 392.47,329.00 C396.66,364.86 414.00,521.10 414.00,522.98 C414.00,523.67 447.04,524.01 514.75,524.02 L 615.50 524.04 L 660.76 615.77 C685.66,666.22 709.49,714.59 713.72,723.25 C718.04,732.09 722.01,739.00 722.77,739.00 C723.52,739.00 750.65,726.11 783.07,710.35 Z" fill="rgb(254,254,254)"/>
</g>
</svg>